<svg width="1920" height="1310" viewBox="0 0 1920 1310" fill="none" xmlns="http://www.w3.org/2000/svg">
<g style="mix-blend-mode:overlay">
<path d="M721.537 337.569L725.531 330.132M721.537 337.569L717.407 345.257M721.537 337.569H843.845M721.537 337.569L596.292 164.68M725.531 330.132L729.397 322.933M725.531 330.132L617.305 191.579M725.531 330.132H845.842M729.397 322.933L617.305 191.579M729.397 322.933H847.776M617.305 191.579L596.827 165.363L596.292 164.68M1086.46 330.132L1084.53 322.933M1086.46 330.132L1088.46 337.569M1086.46 330.132H1206.77M1086.46 330.132H966.153M1206.77 330.132L1202.91 322.933M1206.77 330.132L1210.77 337.569M1206.77 330.132H1281.56M1202.91 322.933H1285.68M1202.91 322.933H1084.53M1285.68 322.933L1281.56 330.132M1285.68 322.933L1337.64 232.363M1084.53 322.933H966.153M966.153 322.933V330.132M966.153 322.933H847.776M847.776 322.933L845.842 330.132M-1497.33 204.267L-1459.36 244.994M-1497.33 204.267L-1454.01 235.305M-1497.33 204.267L-1549.95 216.718M-1497.33 204.267L-1523.9 271.412L-1523.93 271.489L-1532.02 291.909M-1459.36 244.994L-1454.01 235.305M-1459.36 244.994L-1465.63 256.349M-1014.42 201.648L-1018.25 200.624L-1041.81 194.328M-1014.42 201.648L-1018.38 201.725L-1019.08 201.737L-1060.41 202.538M-1014.42 201.648L-984.274 225.739M-1041.81 194.328L-1074.23 185.665M-1041.81 194.328L-1029.96 172.437M-1074.23 185.665L-1183.93 156.352M-1074.23 185.665L-1032.93 173.323M-1183.93 156.352L-1348.26 166.426M-1183.93 156.352L-1218.37 310.606M-1348.26 166.426L-1444.08 239.836M-1348.26 166.426L-1357.56 346.933M-1444.08 239.836L-1451.46 230.695M-1444.08 239.836L-1371.24 330.006L-1371.13 330.132L-1357.56 346.933M-513.154 353.527L-652.924 400.423M-513.154 353.527L-461.596 328.973M-513.154 353.527L-553.646 397.305L-553.782 397.451L-601.528 449.07M-513.154 353.527L-522.284 431.789M-652.924 400.423L-683.473 353.835L-683.708 353.483L-719.396 299.058L-719.711 298.574L-719.918 298.258L-720.155 297.9L-766.094 227.843L-766.42 227.348M-652.924 400.423L-666.108 474.956M-652.924 400.423L-639.213 48.6833M-766.42 227.348L-768.958 223.474M-766.42 227.348L-766.012 226.777L-726.589 171.407L-726.36 171.083L-716.515 157.255M-768.958 223.474L-811.492 158.614M-768.958 223.474L-764.562 207.792M-811.492 158.614L-859.071 86.0537M-811.492 158.614L-760.577 155.656M-859.071 86.0537L-902.491 160.149M-859.071 86.0537L-875.427 294.704L-875.452 294.989L-880.302 356.888L-881.445 371.46M-902.491 160.149L-918.747 187.889L-918.779 187.945L-933.296 212.719M-902.491 160.149L-960.921 152.114M-933.296 212.719L-937.63 220.115M-933.296 212.719L-1010.89 180.386M-937.63 220.115L-954.753 249.334M-937.63 220.115L-984.274 225.739M-954.753 249.334L-986.638 303.749M-954.753 249.334L-984.274 225.739M-986.638 303.749L-1005.5 335.944M-986.638 303.749L-1059.8 203.377L-1060.41 202.538M-1005.5 335.944L-981.512 342.812L-932.194 356.931L-930.986 357.277L-882.574 371.136L-881.445 371.46M-1005.5 335.944L-1067.15 318.297M-462.067 173.829L-453.712 175.24M-462.067 173.829L-482.001 178.708M-462.067 173.829L-475.741 181.808M-462.067 173.829L-437.582 164.91M-453.712 175.24L-473.341 182.995M-453.712 175.24L-429.578 165.705M-429.578 165.705L-437.582 164.91M-429.578 165.705L-358.052 137.448M-437.582 164.91L-484.729 177.357M42.2491 742.5L0.1866 741.541M42.2491 742.5L358.108 1014.11M42.2491 742.5L75.7988 623.552M0.1866 741.541L-215.572 777.154M0.1866 741.541L331.933 1062.84M0.1866 741.541L-38.5621 893.992M-215.572 777.154L-239.76 781.146L-239.793 781.151M-215.572 777.154L-213.306 761.529M-239.793 781.151L-318.607 794.16M-239.793 781.151L-213.306 761.529M-318.607 794.16L-461.011 784.348M-318.607 794.16L-378.723 811.407M-461.011 784.348L-718.506 766.609M-461.011 784.348L-451.307 729.493M-718.506 766.609L-738.469 782.567M-718.506 766.609L-378.723 811.407M-718.506 766.609L-778.965 1051.88M-738.469 782.567L-971.969 969.251M-738.469 782.567L-732.452 758.782M-971.969 969.251L-1028.08 1014.11M-971.969 969.251H-1077.66M-1028.08 1014.11L-1089.03 1062.84M-1028.08 1014.11H-1162.01M-1089.03 1062.84L-1124.08 1090.86M-1089.03 1062.84H-1253.62M-1124.08 1090.86L-1226.18 1115.94M-1124.08 1090.86L-1218.65 1237.91M-1124.08 1090.86L-778.965 1051.88M-1226.18 1115.94L-1462.73 1174.06M-1226.18 1115.94H-1353.47M-1462.73 1174.06L-1353.47 1115.94M-1462.73 1174.06L-1582.78 1237.91M-1462.73 1174.06H-1645.57M-1353.47 1115.94L-1253.62 1062.84M-1353.47 1115.94H-1645.57M404.468 927.808L301.055 832.078M404.468 927.808L382.206 969.251M404.468 927.808L425.096 889.411M404.468 927.808H685.311M301.055 832.078L287.716 819.729M301.055 832.078L425.096 889.411M287.716 819.729L194.203 733.16L192.456 731.546M287.716 819.729L444.262 853.732M192.456 731.546L94.9516 641.284M192.456 731.546L204.437 662.367M94.9516 641.284L92.7154 639.213M94.9516 641.284L141.076 650.165M92.7154 639.213L75.7988 623.552M92.7154 639.213H152.842M75.7988 623.552L33.9542 591.194M75.7988 623.552L382.206 969.251M75.7988 623.552L-29.6467 673.875L-213.306 761.529M33.9542 591.194L-15.6387 552.844M33.9542 591.194L174.688 618.879M-15.6387 552.844L-115.102 475.929L-115.703 475.467L-184.226 422.478M-15.6387 552.844L-1.26605 511.763M-184.226 422.478L-228.25 404.795M-184.226 422.478L-451.307 729.493M-184.226 422.478L-190.989 501.337L-191.008 501.567L-192.3 516.636L-192.336 517.038L-213.306 761.529M-228.25 404.795L-263.195 390.757L-264.191 390.358L-272.078 387.19L-272.554 386.998L-314.602 370.109L-315.587 369.714L-379.447 344.063L-379.95 343.862L-395.569 337.588L-395.615 337.569L-399.35 336.069M-228.25 404.795L-209.266 243.746M-399.35 336.069L-399.397 336.05L-399.402 336.048M-399.35 336.069L-399.342 335.968M-399.402 336.048L-399.342 335.968M-399.402 336.048L-416.087 329.347M-416.087 329.347L-422.641 326.714M-416.087 329.347L-398.025 298.701M-422.641 326.714L-438.347 348.617L-438.428 348.73L-493.479 425.509M-422.641 326.714L-451.307 729.493M-493.479 425.509L-493.694 425.807L-671.302 673.5M-493.479 425.509L-522.284 431.789M-671.302 673.5L-677.007 681.459M-671.302 673.5L-629.117 455.086M-677.007 681.459L-732.452 758.782M-677.007 681.459L-951.058 628.014M-732.452 758.782L-998.649 921.079M-732.452 758.782L-451.307 729.493M-998.649 921.079L-1009.69 927.808M-998.649 921.079L-951.058 628.014M-1009.69 927.808L-1077.66 969.251M-1009.69 927.808H-1280.58M-1077.66 969.251H-1369.63M-1077.66 969.251L-1162.01 1014.11M-209.266 243.746L-265.842 271.197L-266.354 271.446L-357.916 315.87L-399.342 335.968M-209.266 243.746L-145.918 325.373L-145.869 325.436L-1.26605 511.763M-209.266 243.746L-180.697 198.711M-399.342 335.968L-368.744 249.022M40.6631 331.995L12.6279 315.115L-1.64691 306.52L-1.89995 306.368L-79.422 259.691M40.6631 331.995L22.0002 461.651M40.6631 331.995L227.921 395.035M40.6631 331.995L63.1184 315.466M-79.422 259.691L-78.3937 260.093L-64.5161 265.524M-79.422 259.691L-117.613 236.695L-117.983 236.473L-180.697 198.711M-180.697 198.711L-200.146 203.915M-180.697 198.711L22.0002 461.651M-200.146 203.915L-215.808 208.106M-200.146 203.915L-197.042 177.331M-215.808 208.106L-226.957 211.088M-215.808 208.106L-201.7 184.967L-201.537 184.703L-197.042 177.331M-226.957 211.088L-327.941 238.105M-226.957 211.088L-224.582 156.615M-327.941 238.105L-368.744 249.022M-327.941 238.105L-362.492 214.672M-368.744 249.022L-371.092 253.002M-12.1264 185.379L127.848 191.113M-12.1264 185.379L-0.202304 37.0985M-12.1264 185.379L-116.979 230.61M-12.1264 185.379L-30.2454 208.66M127.848 191.113L143.679 191.378M127.848 191.113L147.045 194.483M127.848 191.113L115.976 281.848L115.894 282.455L115.206 287.732M343.601 310.558L343.591 310.544M343.601 310.558L344.159 310.435M343.601 310.558L287.275 322.933L287.047 322.984L264.015 328.045M343.591 310.544L344.159 310.435M343.591 310.544L313.64 272.817M313.64 272.817L268.359 215.783M313.64 272.817L316.562 160.473M268.359 215.783L182.806 200.763M268.359 215.783L264.015 328.045M182.806 200.763L147.045 194.483M182.806 200.763L184.836 109.919M147.045 194.483L143.679 191.378M143.679 191.378L111.585 156.964M111.585 156.964L-0.202304 37.0985M111.585 156.964L184.836 109.919M-0.202304 37.0985L-131.512 170.831M-131.512 170.831L-136.121 177.893M-131.512 170.831L-135.218 218.472M-136.121 177.893L-146.508 193.814M-136.121 177.893L-224.582 156.615M-146.508 193.814L-154.308 205.768M-146.508 193.814L-224.582 156.615M-154.308 205.768L-135.218 218.472M-154.308 205.768L-197.042 177.331M-116.979 230.61L-111.016 234.579M-116.979 230.61L-135.218 218.472M316.562 160.473L253.6 136.309M316.562 160.473L325.104 62.9577M316.562 160.473L407.725 296.469M253.6 136.309L184.836 109.919M253.6 136.309L325.104 62.9577M-83.092 1008.5L272.187 1174.06M-83.092 1008.5L-38.5621 893.992M-83.092 1008.5L-129.782 1170.92M-83.092 1008.5L-428.512 1073.25M272.187 1174.06L303.406 1115.94M272.187 1174.06L237.886 1237.91M272.187 1174.06H619.171M303.406 1115.94L-38.5621 893.992M303.406 1115.94L331.933 1062.84M303.406 1115.94H634.779M-38.5621 893.992L-378.723 811.407M-129.782 1170.92L237.886 1237.91M-129.782 1170.92L-490.383 1237.91M-129.782 1170.92L-183.752 1295.86M382.206 969.251L358.108 1014.11M382.206 969.251H674.181M331.933 1062.84L358.108 1014.11M331.933 1062.84H649.043M358.108 1014.11H662.132M425.096 889.411H695.624M425.096 889.411L444.262 853.732M204.437 662.367L195.775 660.699M204.437 662.367L462.114 820.496M204.437 662.367L249.93 683.443M462.114 820.496L478.788 789.459M462.114 820.496L444.262 853.732M462.114 820.496H714.135M478.788 789.459L416.077 760.409M478.788 789.459L494.393 760.409M478.788 789.459H722.47M416.077 760.409L357.259 733.16M416.077 760.409H494.393M357.259 733.16L301.98 707.553M357.259 733.16H509.03M301.98 707.553L301.341 707.257M301.98 707.553H522.785M301.341 707.257L249.93 683.443M301.341 707.257L320.531 683.443M249.93 683.443H320.531M195.775 660.699L141.076 650.165M195.775 660.699H338.857M141.076 650.165L152.842 639.213M522.785 707.553L535.738 683.443M522.785 707.553H744.469M522.785 707.553L509.03 733.16M535.738 683.443H320.531M535.738 683.443L547.956 660.699M535.738 683.443H750.947M320.531 683.443L338.857 660.699M570.422 618.879L580.771 599.61M570.422 618.879L559.499 639.213M570.422 618.879H768.288M570.422 618.879L372.603 618.821M580.771 599.61H388.08M580.771 599.61L590.595 581.323M580.771 599.61H773.462M388.08 599.61L372.603 618.821M388.08 599.61H195.392M388.08 599.61L402.817 581.323M372.603 618.821L355.586 618.815M608.811 547.41L617.275 531.659M608.811 547.41L599.929 563.946M608.811 547.41H787.483M608.811 547.41L580.619 511.766M617.275 531.659L589.591 516.636M617.275 531.659L625.344 516.636M617.275 531.659H791.714M589.591 516.636L580.619 511.766M589.591 516.636H625.344M580.619 511.766L573.123 502.292M640.414 488.582L647.459 475.467M640.414 488.582L633.049 502.292M640.414 488.582H803.284M640.414 488.582L562.279 488.582M647.459 475.467L654.206 462.906M647.459 475.467H551.906M647.459 475.467H806.808M551.906 475.467L562.279 488.582M551.906 475.467L541.97 462.906M666.879 439.315L672.837 428.224M666.879 439.315L660.676 450.865M666.879 439.315H816.517M666.879 439.315H523.307M672.837 428.224L678.564 417.566M672.837 428.224H526.18M672.837 428.224H819.496M526.18 428.224L520.304 435.516M526.18 428.224H514.536M526.18 428.224L534.769 417.566M520.304 435.516L523.307 439.315M520.304 435.516L514.536 428.224M550.978 397.451L543.029 407.315M550.978 397.451H689.37M550.978 397.451L556.982 300.603M550.978 397.451H490.196M689.37 397.451L694.473 387.95M689.37 397.451L684.07 407.315M689.37 397.451L827.761 397.451M694.473 387.95L699.392 378.793M694.473 387.95L556.982 300.603M694.473 387.95H830.313M556.982 300.603L574.427 310.18M556.982 300.603L500.125 298.664M411.289 297.694L420.473 295.951M411.289 297.694L409.934 295.983M411.289 297.694L419.529 308.113M420.473 295.951L456.278 297.17M420.473 295.951L419.529 308.113M456.278 297.17L500.125 298.664M456.278 297.17L458.218 272.239M500.125 298.664L481.332 286.814L481 286.606L458.218 272.239M708.713 361.438L713.134 353.208M708.713 361.438L704.137 369.962M708.713 361.438H837.433M708.713 361.438H667.785M713.134 353.208L717.407 345.257M713.134 353.208H652.794M713.134 353.208H839.645M652.794 353.208L634.874 343.368M652.794 353.208L667.785 361.438M1313.13 1174.06H1660.12M1313.13 1174.06L1297.53 1115.94M1313.13 1174.06H966.153M1313.13 1174.06L1330.29 1237.91M1660.12 1174.06L1628.9 1115.94M1660.12 1174.06L1694.42 1237.91M1660.12 1174.06L1882.28 1121.46M1628.9 1115.94L1600.37 1062.84M1628.9 1115.94L1971.8 874.443M1628.9 1115.94H1297.53M1600.37 1062.84L1574.2 1014.11M1600.37 1062.84L1799.03 797.482M1600.37 1062.84H1283.26M1574.2 1014.11L1550.1 969.251M1574.2 1014.11H1270.18M1574.2 1014.11L1620.76 969.251M1971.8 874.443L1938.03 611.819M1971.8 874.443L1991.92 984.814M1971.8 874.443L2065.27 893.403M1297.53 1115.94H966.153M1297.53 1115.94L1283.26 1062.84M1258.12 969.251H1550.1M1258.12 969.251L1246.99 927.808M1258.12 969.251H966.153M1258.12 969.251L1270.18 1014.11M1550.1 969.251L1527.84 927.808M1550.1 969.251H1620.76M1527.84 927.808H1246.99M1527.84 927.808L1507.21 889.411M1527.84 927.808H1663.77M1246.99 927.808H966.153M1246.99 927.808L1236.68 889.411M1218.17 820.496H1470.19M1218.17 820.496L1209.83 789.459M1218.17 820.496H966.153M1218.17 820.496L1227.1 853.732M1470.19 820.496L1453.52 789.459M1470.19 820.496L1488.04 853.732M1470.19 820.496L1522.34 820.496M1453.52 789.459H1209.83M1453.52 789.459L1437.91 760.409M1453.52 789.459L1554.37 789.459M1209.83 789.459H966.153M1209.83 789.459L1202.03 760.409M1187.84 707.553H1409.52M1187.84 707.553L1181.36 683.443M1187.84 707.553H966.153M1187.84 707.553L1194.71 733.16M1409.52 707.553L1396.57 683.443M1409.52 707.553L1423.28 733.16M1409.52 707.553H1631.2M1396.57 683.443H1181.36M1396.57 683.443L1384.35 660.699M1396.57 683.443H1611.77M1181.36 683.443H966.153M1181.36 683.443L1175.25 660.699M1164.02 618.879H1361.88M1164.02 618.879L1158.84 599.61M1164.02 618.879H966.153M1164.02 618.879L1169.48 639.213M1361.88 618.879L1351.53 599.61M1361.88 618.879L1372.81 639.213M1361.88 618.879H1559.75M1351.53 599.61H1158.84M1351.53 599.61L1341.71 581.323M1351.53 599.61H1544.23M1158.84 599.61H966.153M1158.84 599.61L1153.93 581.323M1144.82 547.41H1323.49M1144.82 547.41L1140.59 531.659M1144.82 547.41H966.153M1144.82 547.41L1149.26 563.946M1323.49 547.41L1351.6 540.601M1323.49 547.41L1315.03 531.659M1323.49 547.41L1332.38 563.946M1351.6 540.601L1424.93 451.564L1425.51 450.865L1497.14 363.889M1351.6 540.601L1332.38 563.946M1315.03 531.659L1306.96 516.636M1315.03 531.659L1360.48 476.009M1315.03 531.659H1140.59M1306.96 516.636L1299.26 502.292M1306.96 516.636L1325.86 502.292M1306.96 516.636H1136.56M1880.57 249.224L1850.21 240.46M1880.57 249.224L1923.35 164.868M1880.57 249.224L1869.09 271.842M1850.21 240.46L1803.5 248.364M1850.21 240.46L1869.09 271.842M1803.5 248.364L1800.69 248.839M1803.5 248.364L1798.2 246.734M1800.69 248.839L1798.2 246.734M1800.69 248.839L1700.53 265.786M1700.53 265.786L1672.42 270.544M1700.53 265.786L1693.78 158.337M1672.42 270.544L1651.36 275.4L1651.25 275.424M1672.42 270.544L1682.7 381.86L1682.78 382.767L1685.39 411.032M1651.25 275.424L1626.1 281.221M1651.25 275.424L1625.05 244.136M1626.1 281.221L1515.37 306.745M1626.1 281.221L1625.05 244.136M1515.37 306.745L1514.21 307.012L1494.85 311.475M1515.37 306.745L1532.29 297.083M1494.85 311.475L1484.17 324.553M1494.85 311.475L1497.14 363.889M1484.17 324.553L1458.91 355.481M1484.17 324.553L1458.16 339.401M1458.91 355.481L1381.21 450.631L1381.01 450.865L1360.92 475.467L1360.48 476.009M1458.91 355.481L1458.16 339.401M1360.48 476.009L1325.86 502.292M1140.59 531.659H966.153M1140.59 531.659L1136.56 516.636M1129.02 488.582L1125.5 475.467M1129.02 488.582L1132.7 502.292M1129.02 488.582H1291.89M1129.02 488.582L966.153 488.582M1291.89 488.582L1284.85 475.467M1291.89 488.582L1292.87 487.707L1306.51 475.467M1291.89 488.582L1299.26 502.292M1284.85 475.467L1278.1 462.906M1284.85 475.467H1306.51M1284.85 475.467H1125.5M1125.5 475.467L1122.12 462.906M1125.5 475.467H966.153M1115.79 439.315L1112.81 428.224M1115.79 439.315L1118.89 450.865M1115.79 439.315H1265.43M1115.79 439.315H966.153M1265.43 439.315L1259.47 428.224M1265.43 439.315L1271.63 450.865M1265.43 439.315L1348.04 438.2M1348.04 438.2L1334.4 450.44L1333.93 450.865M1348.04 438.2L1412.98 379.935M1259.47 428.224L1253.74 417.566M1259.47 428.224L1409.2 277.723M1259.47 428.224H1112.81M1253.74 417.566L1248.24 407.315M1253.74 417.566L1403.08 140.984M1253.74 417.566H1109.95M1248.24 407.315L1242.94 397.451M1248.24 407.315L1337.64 232.363M1248.24 407.315H1107.19M1242.94 397.451L1248.39 387.95M1242.94 397.451L1237.83 387.95M1242.94 397.451H1104.54M1409.2 277.723L1403.08 140.984M1409.2 277.723L1412.98 379.935M1409.2 277.723L1532.29 297.083M1112.81 428.224L1109.95 417.566M1112.81 428.224H966.153M1104.54 397.451L1101.99 387.95M1104.54 397.451L1107.19 407.315M1104.54 397.451H966.153M1337.64 232.363L1394.92 120.29M1281.56 330.132L1277.29 337.569M1277.29 337.569L1272.88 345.257M1277.29 337.569H1210.77M1272.88 345.257L1268.32 353.208M1272.88 345.257H1214.9M1268.32 353.208L1263.6 361.438M1268.32 353.208H1219.17M1263.6 361.438L1258.71 369.962M1263.6 361.438H1223.59M1258.71 369.962L1253.64 378.793M1258.71 369.962H1228.17M1253.64 378.793L1248.39 387.95M1253.64 378.793H1232.91M1248.39 387.95H1237.83M1237.83 387.95L1232.91 378.793M1237.83 387.95H1101.99M1101.99 387.95L1099.53 378.793M1101.99 387.95H966.153M1094.87 361.438L1092.66 353.208M1094.87 361.438L1097.16 369.962M1094.87 361.438H1223.59M1094.87 361.438H966.153M1223.59 361.438L1219.17 353.208M1223.59 361.438L1228.17 369.962M1219.17 353.208L1214.9 345.257M1219.17 353.208H1092.66M1092.66 353.208L1090.53 345.257M1092.66 353.208H966.153M2630.62 1020.43L2632.65 1022.99M2630.62 1020.43L2634.82 1021.35M2630.62 1020.43L2564.35 896.21M2630.62 1020.43L2317.75 945.192M2632.65 1022.99L2634.82 1021.35M2632.65 1022.99L2512.91 1113.41M2656.71 859.187L2405.59 784.904M2656.71 859.187L2689.51 867.363M2656.71 859.187L2649.82 290.136L2649.82 289.973L2647.88 129.845M2656.71 859.187L2664.47 873.134M2405.59 784.904L2379.36 766.51M2405.59 784.904L2564.35 896.21M2329.04 440.847L2347.81 437.818M2329.04 440.847L2293.07 414.63M2329.04 440.847L2249.31 453.714L2177.06 465.376M2293.07 414.63L2210.95 354.769M2293.07 414.63L2389.45 361.996L2389.85 361.774L2408.6 351.537M2210.95 354.769L2169.73 324.713M2210.95 354.769L2201.82 275.795M2169.73 324.713L2101.34 311.715L2099.92 311.443L2025.13 297.226M2169.73 324.713L2049.62 489.627M2169.73 324.713L2177.06 465.376M2025.13 297.226L1975.39 287.77M2025.13 297.226L2024.56 290.791M1975.39 287.77L1970 275.041M1975.39 287.77L1943.95 281.792M1943.95 281.792L1946.58 358.511L1946.58 358.654L1952.23 523.7M1943.95 281.792L1916.23 324.355L1915.53 325.425L1890.24 364.248L1889.96 364.677L1736.91 599.61M1943.95 281.792L1923.35 164.868M1952.23 523.7L2049.62 489.627M1952.23 523.7L1758.73 591.397M2173.02 264.432L2173.29 264.538L2201.82 275.795M2173.02 264.432L2031.43 289.571M2173.02 264.432L2150.27 166.629M2173.02 264.432L2214.93 275.247M2031.43 289.571L2024.56 290.791M2031.43 289.571L2150.27 166.629M2024.56 290.791L1996.58 282.712M2024.56 290.791L2118.15 282.873L2119.46 282.763L2201.82 275.795M1996.58 282.712L2005.47 272.238M1996.58 282.712L1970 275.041M1970 275.041L1968.39 271.238M1869.09 271.842L1865.63 278.67M2450.35 219.597L2554.76 225.418M2450.35 219.597L2428.95 46.0644M2450.35 219.597L2334.19 182.205M2450.35 219.597L2457.42 308.822L2457.44 309.072L2457.45 309.304L2457.84 314.154L2457.86 314.443L2458.62 324.084M2554.76 225.418L2608.49 170.277M2554.76 225.418L2480.74 301.389L2480.52 301.614L2479.91 302.237L2470.53 311.869L2470.23 312.172L2468.92 313.512L2468.91 313.527L2458.62 324.084M2915.44 121.425L2751.68 74.7589M2915.44 121.425L3051.66 91.8602M2915.44 121.425L2839.15 137.986M2751.68 74.7589L2593.18 23.2089M2751.68 74.7589L2783.72 177.202M2593.18 23.2089L2428.95 46.0644M2593.18 23.2089L2608.49 170.277M2428.95 46.0644L2334.19 182.205M2334.19 182.205L2288.6 167.531M2288.6 167.531L2125.23 131.162M2288.6 167.531L2311.69 271.205M2125.23 131.162L2005.47 272.238M2125.23 131.162L2150.27 166.629M2005.47 272.238L1968.39 271.238M3409.06 1L3424.83 192.449M3409.06 1L3445.71 137.857M3409.06 1L3270.22 30.6977M3424.83 192.449L3422.89 192.439M3424.83 192.449L3460.38 192.648M3485.36 109.564L3552.78 201.079L3552.45 200.959M3485.36 109.564L3445.71 137.857M3485.36 109.564L3491.52 192.824M3485.36 109.564L3517.7 192.97M3445.71 137.857L3460.38 192.648M3270.22 30.6977L3152.18 119.255M3270.22 30.6977L3121.07 110.775M3270.22 30.6977L3290.55 143.535M3152.18 119.255L3254.41 147.116L3277.27 163.473M3152.18 119.255L3121.07 110.775M3460.38 192.648L3491.52 192.824M3121.07 110.775L3051.66 91.8602M3422.89 192.439L3396.15 117.963M3422.89 192.439L3398.77 192.303M3396.15 117.963L3350.29 53.8913L3290.55 143.535M3396.15 117.963L3306.66 184.514M3396.15 117.963L3398.77 192.303M3290.55 143.535L3277.27 163.473M3277.27 163.473L3279.83 165.306L3282.75 167.393L3296.64 177.343L3297.18 177.723L3306.66 184.514M2783.72 177.202L2787.43 176.215M2783.72 177.202L2783.74 177.44L2783.86 178.854M2783.72 177.202L2683.15 207.852M2787.43 176.215L2839.15 137.986M2787.43 176.215L2783.86 178.854M3316.91 191.845L3088.26 343.894M3316.91 191.845L3398.77 192.303M3316.91 191.845L3306.66 184.514M3316.91 191.845L3329.56 568.272M3088.26 343.894L3095.44 425.237M3088.26 343.894L3085.36 323.908L3085.22 322.933L3051.66 91.8602M3088.26 343.894L2898.5 428.763M3095.44 425.237L3268.44 502.771M3095.44 425.237L3023.12 392.825M3530.47 193.042L3517.7 192.97M3530.47 193.042L3536.17 335.339L3536.18 335.579L3537.16 359.867L3537.16 360.056L3546.24 586.572L3546.25 586.798L3549.75 674.247M3530.47 193.042L3552.45 200.959M3517.7 192.97L3491.52 192.824M2839.15 137.986L2855.85 318.707L2855.87 318.927L2861.38 378.455M2783.86 178.854L2698.55 241.912M2698.55 241.912L2753.04 362.44L2753.45 363.36L2758.12 373.676L2758.93 375.467L2784.6 432.246M2698.55 241.912L2683.15 207.852M2898.5 428.763L2950.37 499.069M2898.5 428.763L2861.38 378.455M3549.75 674.247L3433.08 679.207M3549.75 674.247L3569.72 682.93M3549.75 674.247L3569.72 659.384M2201.82 275.795L2214.93 275.247M2214.93 275.247L2215.41 275.227L2306.53 271.42M2306.53 271.42L2311.69 271.205M2306.53 271.42L2245.13 230.247L2244.22 229.635L2150.27 166.629M2311.69 271.205L2378.82 268.401M2378.82 268.401L2385.11 278.926L2385.11 278.929L2410.92 322.131L2411.09 322.401L2411.52 323.123L2411.63 323.313L2420.48 338.129L2420.7 338.485L2429.78 353.688M2378.82 268.401L2398.99 324.709L2399.81 326.988L2400.38 328.59L2408.6 351.537M2429.78 353.688L2458.62 324.084M2429.78 353.688L2419.41 364.329M2408.6 351.537L2419.41 364.329M2408.6 351.537L2410.88 373.09M2049.62 489.627L2069.17 482.789M2177.06 465.376L2069.17 482.789M3477.72 727.058L3459.52 707.553M3477.72 727.058L3532.54 707.553M3477.72 727.058L3306.03 788.158M3459.52 707.553L3433.08 679.207M3459.52 707.553H3532.54M3433.08 679.207L3329.56 568.272M3329.56 568.272L3268.44 502.771M3268.44 502.771L3274.32 547.41L3274.34 547.611L3306.03 788.158M3023.12 392.825L3022.61 393.575L3022.24 394.112L2950.37 499.069M3023.12 392.825L3029.55 428.224L3029.62 428.632L3048.5 532.583L3048.63 533.324L3072.45 664.515M2950.37 499.069L2986.04 547.41L2986.08 547.456L3072.45 664.515M2689.51 867.363L2664.47 873.134M2689.51 867.363L2890.85 820.96M2881.66 646.931L2784.6 432.246M2881.66 646.931L2836.82 345.173M2881.66 646.931L2911.37 812.514M2881.66 646.931L3049.83 810.882M2784.6 432.246L2809.88 390.092L2811.7 387.054L2811.84 386.821L2836.82 345.173M2683.15 207.852L2647.88 129.845M2647.88 129.845L2608.49 170.277M2419.41 364.329L2410.88 373.09M2410.88 373.09L2405.08 379.043L2404.82 379.305L2347.81 437.818M2347.81 437.818L2379.36 766.51M2069.17 482.789L2076.44 641.88M2069.17 482.789L1971.48 619.084M1758.73 591.397L1743.72 605.943M1758.73 591.397L1773.45 822.133M1743.72 605.943L1736.91 599.61M1743.72 605.943L1730.37 618.879M1730.37 618.879L1709.39 639.213M1730.37 618.879L1559.75 618.879M1709.39 639.213L1687.54 660.389M1709.39 639.213L1576.14 639.213M1687.54 660.389L1663.75 683.443M1687.54 660.389L1593.45 660.699M1663.75 683.443L1638.88 707.553M1663.75 683.443H1611.77M1638.88 707.553L1634.57 711.728M1638.88 707.553L1631.2 707.553M1634.57 711.728L1631.2 707.553M1634.57 711.728L1612.45 733.16M1612.45 733.16L1604.71 740.669M1612.45 733.16L1423.28 733.16M1604.71 740.669L1554.37 789.459M1604.71 740.669L1437.91 760.409M1554.37 789.459L1522.34 820.496M1522.34 820.496L1488.04 853.732M1488.04 853.732L1507.21 889.411M1488.04 853.732L1227.1 853.732M2664.47 873.134L2564.35 896.21M2836.82 345.173L2861.38 378.455M3072.45 664.515L3111.63 816.6M3072.45 664.515L3254.29 806.57M3532.54 707.553L3546.81 702.474L3569.72 703.723M3306.03 788.158L3254.29 806.57M3254.29 806.57L3211.55 821.782M3211.55 821.782L3214.8 826.144M3211.55 821.782L3166.39 821.666M3166.39 821.666L3111.63 816.6M3166.39 821.666L3214.8 826.144M2890.85 820.96L2892.3 826.914M2890.85 820.96L2900.15 820.984M2892.3 826.914L2900.15 820.984M2892.3 826.914L2634.82 1021.35M2589.79 1309L2186.06 1256.6L2143.93 795.358M2589.79 1309L2749.72 1123.16L2837.11 1029.98M2589.79 1309H3120.69M2589.79 1309L2512.91 1113.41M2589.79 1309L2186.07 1256.94L2021.23 1309M2589.79 1309L2749.72 1123.49L3120.69 1309M2589.79 1309H2021.23M2837.11 1029.98L2932.65 928.128L2932.95 927.808L2933.15 927.595L3003.97 852.097M2837.11 1029.98L3120.69 1309M3003.97 852.097L3043.2 810.27M3003.97 852.097L3292.84 1054.48M3043.2 810.27L3049.83 810.882M3043.2 810.27L2928.74 799.394L2911.37 812.514M3049.83 810.882L3111.63 816.6M3214.8 826.144L3454.13 848.287M3454.13 848.287L3454.52 848.915M3454.13 848.287L3292.84 1054.48M3454.52 848.915L3569.72 1031M3454.52 848.915L3569.72 773.809M3292.84 1054.48L3534.72 1214.56M3292.84 1054.48L3120.69 1309M3534.72 1214.56L3515.09 1237.91M3534.72 1214.56L3569.72 1237.73M3570 1237.91L3569.72 1237.73M3570 1237.91V1309M3570 1237.91H3569.72M3120.69 1309L3515.09 1237.91M3120.69 1309L3569.72 1238.25V1237.91M3120.69 1309H3570M3515.09 1237.91H3569.72M1228.17 369.962L1232.91 378.793M1228.17 369.962H1097.16M1232.91 378.793H1099.53M1403.08 140.984L1548.29 157.151M1403.08 140.984L1394.92 120.29M1109.95 417.566L1107.19 407.315M1109.95 417.566H966.153M1798.2 246.734L1693.78 158.337M1693.78 158.337L1618.27 157.721M1618.27 157.721L1548.29 157.151M1618.27 157.721L1527.1 110.218M1548.29 157.151L1536.91 155.62M1548.29 157.151L1555.32 283.942M1394.92 120.29L1527.1 110.218M1394.92 120.29L1536.91 155.62M1527.1 110.218L1536.91 155.62M1412.98 379.935L1414.26 378.793L1458.16 339.401M1532.29 297.083L1555.32 283.942M1278.1 462.906L1271.63 450.865M1278.1 462.906H1320.51M1278.1 462.906H1122.12M1306.51 475.467L1306.87 475.146L1320.51 462.906M1271.63 450.865H1118.89M1271.63 450.865H1333.93M1333.93 450.865L1320.51 462.906M1625.05 244.136L1555.32 283.942M1299.26 502.292H1325.86M1299.26 502.292H1132.7M1685.39 411.032L1865.63 278.67M1685.39 411.032L1701.39 482.503M1685.39 411.032L1641.62 433.343M1865.63 278.67L1861.69 286.44L1861.67 286.476L1855.91 297.838L1855.84 297.974L1843.23 322.843L1843.18 322.933L1825.11 358.569M1341.71 581.323L1531.37 510.163M1341.71 581.323L1332.38 563.946M1341.71 581.323H1153.93M1544.23 599.61L1531.37 510.163M1544.23 599.61L1559.75 618.879M1544.23 599.61H1736.91M1531.37 510.163L1521.38 334.454M1531.37 510.163L1717.65 570.451M1701.39 482.503L1701.79 482.095L1825.11 358.569M1701.39 482.503L1641.62 433.343M1701.39 482.503L1717.65 570.451M1641.62 433.343L1544.83 353.742L1544.18 353.208L1521.38 334.454M1521.38 334.454L1497.14 363.889M1332.38 563.946H1149.26M1149.26 563.946H966.153M1149.26 563.946L1153.93 581.323M1559.75 618.879L1576.14 639.213M1736.91 599.61L1717.65 570.451M1717.65 570.451L1825.11 358.569M1968.39 271.238L1923.35 164.868M1372.81 639.213H1576.14M1372.81 639.213H1169.48M1372.81 639.213L1384.35 660.699M1576.14 639.213L1593.45 660.699M1384.35 660.699H1593.45M1384.35 660.699H1175.25M1611.77 683.443L1593.45 660.699M1611.77 683.443L1631.2 707.553M1169.48 639.213H966.153M1169.48 639.213L1175.25 660.699M1175.25 660.699H966.153M1423.28 733.16L1437.91 760.409M1423.28 733.16H1194.71M1437.91 760.409H1202.03M1507.21 889.411H1703.62M1507.21 889.411H1236.68M1663.77 927.808L1620.76 969.251M1663.77 927.808L1703.62 889.411M1703.62 889.411L1773.45 822.133M2076.44 641.88L1971.48 619.084M2076.44 641.88L2257.77 681.264M1971.48 619.084L1938.03 611.819M1938.03 611.819L1847.28 733.036L1847.19 733.16L1799.03 797.482M2257.77 681.264L2379.36 766.51M2257.77 681.264L2300.85 930.625M2900.15 820.984L2911.37 812.514M1799.03 797.482L1773.45 822.133M1991.92 984.814L2065.27 893.403M1991.92 984.814L1882.28 1121.46M2065.27 893.403L2065.77 892.771L2143.93 795.358M1694.42 1237.91L1732.29 1308.41M1694.42 1237.91H1330.29M1694.42 1237.91L1849.84 1161.9M1882.28 1121.46L1849.84 1161.9M2143.93 795.358L2172.04 819.586L2173.09 820.496L2300.85 930.625M2300.85 930.625L2317.75 945.192M2317.75 945.192L2512.91 1113.41M1849.84 1161.9L1732.29 1308.41M1732.29 1308.41H1349.22M1349.22 1308.41H966.153M1349.22 1308.41L1330.29 1237.91M837.433 361.438L839.645 353.208M837.433 361.438L835.145 369.962M837.433 361.438H966.153M839.645 353.208L841.78 345.257M839.645 353.208H966.153M717.407 345.257H841.78M717.407 345.257L634.874 343.368M835.145 369.962L832.772 378.793M835.145 369.962H966.153M835.145 369.962H704.137M966.153 361.438L966.153 353.208M966.153 361.438L966.153 369.962M966.153 353.208V345.257M841.78 345.257L843.845 337.569M841.78 345.257H966.153M966.153 369.962L966.153 378.793M966.153 369.962H1097.16M1097.16 369.962L1099.53 378.793M1090.53 345.257L1088.46 337.569M1090.53 345.257H966.153M1090.53 345.257H1214.9M966.153 345.257V337.569M574.427 310.18L593.133 320.452L593.391 320.593M574.427 310.18L463.412 117.39M593.391 320.593L634.874 343.368M593.391 320.593L596.292 164.68M667.785 361.438L683.308 369.962M683.308 369.962L699.392 378.793M683.308 369.962H704.137M699.392 378.793L704.137 369.962M699.392 378.793H832.772M830.313 387.95L832.772 378.793M830.313 387.95L827.761 397.451M830.313 387.95H966.153M832.772 378.793H966.153M966.153 378.793V387.95M966.153 378.793H1099.53M827.761 397.451L825.111 407.315M827.761 397.451L966.153 397.451M966.153 387.95L966.153 397.451M966.153 397.451V407.315M684.07 407.315L678.564 417.566M684.07 407.315H825.111M684.07 407.315H543.029M825.111 407.315L822.358 417.566M825.111 407.315H966.153M966.153 407.315L966.153 417.566M966.153 407.315H1107.19M678.564 417.566H822.358M678.564 417.566H534.769M819.496 428.224L822.358 417.566M819.496 428.224L816.517 439.315M819.496 428.224H966.153M822.358 417.566H966.153M966.153 417.566V428.224M543.029 407.315L534.769 417.566M543.029 407.315H497.998M534.769 417.566H506.105M816.517 439.315L813.413 450.865M816.517 439.315H966.153M966.153 428.224L966.153 439.315M966.153 439.315V450.865M813.413 450.865L810.181 462.906M813.413 450.865H966.153M813.413 450.865H660.676M966.153 450.865L966.153 462.906M966.153 450.865H1118.89M1118.89 450.865L1122.12 462.906M654.206 462.906L660.676 450.865M654.206 462.906H810.181M654.206 462.906H541.97M806.808 475.467L810.181 462.906M806.808 475.467L803.284 488.582M806.808 475.467H966.153M810.181 462.906H966.153M966.153 462.906V475.467M966.153 462.906H1122.12M660.676 450.865H532.446M541.97 462.906L532.446 450.865M523.307 439.315L532.446 450.865M803.284 488.582L799.601 502.292M803.284 488.582H966.153M966.153 475.467L966.153 488.582M966.153 488.582V502.292M799.601 502.292L799.511 502.623L795.749 516.636M799.601 502.292H966.153M799.601 502.292H633.049M966.153 502.292L966.153 516.636M966.153 502.292H1132.7M1132.7 502.292L1132.79 502.623L1136.56 516.636M625.344 516.636H795.749M625.344 516.636L633.049 502.292M791.714 531.659L795.749 516.636M791.714 531.659L787.483 547.41M791.714 531.659H966.153M795.749 516.636H966.153M966.153 516.636V531.659M966.153 516.636H1136.56M633.049 502.292H573.123M562.279 488.582L573.123 502.292M787.483 547.41L783.041 563.946M787.483 547.41H966.153M966.153 531.659L966.153 547.41M966.153 547.41V563.946M599.929 563.946H783.041M599.929 563.946L409.934 295.983M599.929 563.946L590.595 581.323M783.041 563.946L778.375 581.323M783.041 563.946H966.153M966.153 563.946L966.153 581.323M590.595 581.323H778.375M590.595 581.323H402.817M773.462 599.61L778.375 581.323M773.462 599.61L768.288 618.879M773.462 599.61H966.153M778.375 581.323H966.153M966.153 581.323V599.61M966.153 581.323H1153.93M409.934 295.983L407.725 296.469M409.934 295.983L402.817 581.323M409.934 295.983L227.921 395.035M402.817 581.323H215.037M768.288 618.879L762.824 639.213M768.288 618.879H966.153M966.153 599.61L966.153 618.879M966.153 618.879V639.213M559.499 639.213H762.824M559.499 639.213L355.586 618.815M559.499 639.213L547.956 660.699M762.824 639.213L757.054 660.699M762.824 639.213H966.153M966.153 639.213L966.153 660.699M547.956 660.699H757.054M547.956 660.699H338.857M750.947 683.443L757.054 660.699M750.947 683.443L744.469 707.553M750.947 683.443H966.153M757.054 660.699H966.153M966.153 660.699V683.443M355.586 618.815L354.949 618.879M355.586 618.815L338.857 660.699M744.469 707.553L737.591 733.16M744.469 707.553H966.153M966.153 683.443L966.153 707.553M966.153 707.553V733.16M737.591 733.16L730.273 760.409M737.591 733.16H966.153M737.591 733.16H509.03M966.153 733.16L966.153 760.409M966.153 733.16H1194.71M1194.71 733.16L1202.03 760.409M494.393 760.409H730.273M494.393 760.409L509.03 733.16M722.47 789.459L730.273 760.409M722.47 789.459L714.135 820.496M722.47 789.459H966.153M730.273 760.409H966.153M966.153 760.409V789.459M966.153 760.409H1202.03M714.135 820.496L705.206 853.732M714.135 820.496H966.153M966.153 789.459L966.153 820.496M966.153 820.496V853.732M444.262 853.732H705.206M705.206 853.732L695.624 889.411M705.206 853.732H966.153M966.153 853.732L966.153 889.411M966.153 853.732H1227.1M1227.1 853.732L1236.68 889.411M685.311 927.808L695.624 889.411M685.311 927.808L674.181 969.251M685.311 927.808H966.153M695.624 889.411H966.153M966.153 889.411V927.808M966.153 889.411H1236.68M674.181 969.251L662.132 1014.11M674.181 969.251H966.153M966.153 927.808L966.153 969.251M966.153 969.251V1014.11M662.132 1014.11L649.043 1062.84M662.132 1014.11H966.153M966.153 1014.11L966.153 1062.84M966.153 1014.11H1270.18M1270.18 1014.11L1283.26 1062.84M634.779 1115.94L649.043 1062.84M634.779 1115.94L619.171 1174.06M634.779 1115.94H966.153M649.043 1062.84H966.153M-378.723 811.407L-428.512 1073.25M966.153 1062.84V1115.94M966.153 1062.84H1283.26M619.171 1174.06L602.018 1237.91M619.171 1174.06H966.153M966.153 1115.94L966.153 1174.06M966.153 1174.06V1237.91M237.886 1237.91H602.018M237.886 1237.91L200.016 1308.41M602.018 1237.91L583.083 1308.41M602.018 1237.91H966.153M966.153 1237.91L966.153 1308.41M966.153 1237.91H1330.29M583.083 1308.41H200.016M583.083 1308.41H966.153M200.016 1308.41L-183.752 1295.86M-183.752 1295.86L-566.12 1308.41M-183.752 1295.86L-188.853 1309M325.104 62.9577L463.412 117.39M325.104 62.9577L458.218 272.239M596.292 164.68L463.412 117.39M463.412 117.39L458.218 272.239M407.725 296.469L344.159 310.435M115.206 287.732L112.42 286.218L112.135 286.062L-30.2454 208.66M115.206 287.732L110.831 319.92M115.206 287.732L160.033 324.514M110.831 319.92L160.033 324.514M110.831 319.92L83.645 317.383L83.5933 317.377L63.1184 315.466M514.536 428.224L506.105 417.566M506.105 417.566L497.998 407.315M490.196 397.451L497.998 407.315M490.196 397.451L419.529 308.113M264.015 328.045L244.291 332.379M244.291 332.379L178.57 326.244L160.033 324.514M244.291 332.379L227.921 395.035M63.1184 315.466L-45.9021 272.808M-45.9021 272.808L-64.5161 265.524M-45.9021 272.808L-30.2454 208.66M-64.5161 265.524L-93.0247 246.553L-94.0068 245.898L-111.016 234.579M-1.26605 511.763L22.0002 461.651M-1.26605 511.763L195.392 599.61M22.0002 461.651L215.037 581.323M215.037 581.323L195.392 599.61M215.037 581.323L227.921 395.035M195.392 599.61L174.688 618.879M174.688 618.879H354.949M174.688 618.879L152.842 639.213M354.949 618.879L152.842 639.213M-522.284 431.789L-601.528 449.07M-601.528 449.07L-629.117 455.086M-629.117 455.086L-666.108 474.956M-428.512 1073.25L-778.965 1051.88M-428.512 1073.25L-490.383 1237.91M-1218.65 1237.91L-1332.26 1308.41M-1218.65 1237.91L-856.53 1214.99M-1218.65 1237.91H-1582.78M-778.965 1051.88L-856.53 1214.99M-856.53 1214.99L-949.189 1308.41M-856.53 1214.99L-490.383 1237.91M-490.383 1237.91L-566.12 1308.41M-949.189 1308.41H-1332.26M-949.189 1308.41H-566.12M-1332.26 1308.41L-1586.87 1240.09M-1582.78 1237.91L-1586.87 1240.09M-1582.78 1237.91H-1594.98M-224.582 156.615L-358.052 137.448M-358.052 137.448L-362.492 214.672M-473.341 182.995L-475.741 181.808M-473.341 182.995L-455.309 191.925L-400.923 233.044M-362.492 214.672L-367.052 211.579M-367.052 211.579L-400.923 233.044M-367.052 211.579L-371.092 253.002M-400.923 233.044L-372.15 254.797M-111.016 234.579L-30.2454 208.66M-372.15 254.797L-371.092 253.002M-372.15 254.797L-391.621 287.838M-475.741 181.808L-482.001 178.708M-482.001 178.708L-484.729 177.357M-484.729 177.357L-487.986 175.744M-487.986 175.744L-491.321 179.097M-487.986 175.744L-501.969 247.112M-487.986 175.744L-392.084 287.302L-391.621 287.838M-491.321 179.097L-493.81 181.598M-491.321 179.097L-511.519 184.428M-493.81 181.598L-498.707 186.519M-493.81 181.598L-507.832 185.029M-498.707 186.519L-505.645 193.49M-498.707 186.519L-507.832 185.029M-505.645 193.49L-521.258 209.181M-505.645 193.49L-514.288 183.977M-521.258 209.181L-525.355 213.3M-521.258 209.181L-514.288 183.977M-525.355 213.3L-501.969 247.112M-525.355 213.3L-531.395 204.566M-501.969 247.112L-449.373 323.154M-391.621 287.838L-398.025 298.701M-449.373 323.154L-449.67 323.296L-461.449 328.904L-461.596 328.973M-449.373 323.154L-398.025 298.701M-531.395 204.566L-539.54 192.79M-531.395 204.566L-517.033 187.282M-539.54 192.79L-540.103 191.975M-539.54 192.79L-517.033 187.282M-540.103 191.975L-539.804 191.894L-515.545 185.491M-540.103 191.975L-639.213 48.6833M-639.213 48.6833L-663.203 82.3793M-639.213 48.6833L-461.596 328.973M-663.203 82.3793L-716.515 157.255M-663.203 82.3793L-711.933 20.1019M-716.515 157.255L-711.933 20.1019M-666.108 474.956L-716.604 502.08M-881.445 371.46L-893.065 452.238M-881.445 371.46L-769.127 479.776M-893.065 452.238L-772.098 478.514M-893.065 452.238L-934.972 443.135M-1067.15 318.297L-1071.33 317.1M-1067.15 318.297L-1060.41 202.538M-1071.33 317.1L-1118.51 368.267L-1221.13 479.561M-1071.33 317.1L-1094.92 519.15M-1221.13 479.561L-1234.95 475.226M-1221.13 479.561L-1094.92 519.15M-934.972 443.135L-1053.73 556.862L-1054.83 557.914L-1068.06 570.584L-1090.46 592.036M-934.972 443.135L-1078.08 524.435M-934.972 443.135L-975.222 594.399M-1090.46 592.036L-1099.46 585.845M-1090.46 592.036L-1038.79 627.594M-772.098 478.514L-769.127 479.776M-772.098 478.514L-975.222 594.399M-772.098 478.514L-784.776 538.698M-1078.08 524.435L-1094.92 519.15M-1078.08 524.435L-1099.46 585.845M-1234.95 475.226L-1242.18 470.215M-1234.95 475.226L-1260.36 467.256M-1260.36 467.256L-1289.46 458.129M-1260.36 467.256L-1278.08 445.318M-1289.46 458.129L-1289.63 457.892L-1319.61 415.805L-1319.92 415.357L-1320.23 414.937L-1341.35 385.28L-1372.88 341.011L-1373.17 340.601L-1382.31 327.772L-1451.46 230.695M-1289.46 458.129L-1291.15 459.485M-1289.46 458.129L-1289.85 459.903M-1099.46 585.845L-1276.07 464.312M-716.604 502.08L-732.958 495.136L-733.453 494.927L-769.127 479.776M-716.604 502.08L-784.776 538.698M-975.222 594.399L-1022.7 621.485M-1022.7 621.485L-1036.35 629.275M-1022.7 621.485L-1038.79 627.594M-1036.35 629.275L-1038.79 627.594M-1036.35 629.275L-1052.36 659.761M-1036.35 629.275L-981.477 637.548M-1276.07 464.312L-1289.85 459.903M-1276.07 464.312L-1321.68 459.925L-1322.42 459.854L-1349.19 457.279M-1289.85 459.903L-1290.91 459.561L-1291.15 459.485M-1291.15 459.485L-1292.66 459.004L-1335.62 445.254L-1336.01 445.131L-1460.99 405.133M-1460.99 405.133L-1474.52 400.802L-1475.48 400.494L-1505.49 390.894L-1505.74 390.812L-1514.17 388.114L-1515.5 387.688L-1534.77 381.522M-1460.99 405.133L-1456.5 322.933L-1456.5 322.865L-1451.46 230.695M-1534.77 381.522L-1591.87 363.249M-1534.77 381.522L-1507.43 332.022M-1591.87 363.249L-1625.78 367.797M-1591.87 363.249L-1503.95 397.313L-1501.79 398.151L-1349.19 457.279M-1591.87 363.249L-1645.57 371.928M-1625.78 367.797L-1591.69 344.733M-1625.78 367.797L-1645.57 370.45M-1052.36 659.761L-1135.29 685.749M-1052.36 659.761L-981.477 637.548M-981.477 637.548L-951.058 628.014M-1349.19 457.279L-1386.39 602.022M-1349.19 457.279L-1135.29 685.749M-1386.39 602.022L-1511.1 521.949M-1386.39 602.022L-1216.4 711.168M-1561.43 927.808H-1280.58M-1561.43 927.808L-1511.1 521.949M-1561.43 927.808H-1645.57M-1561.43 927.808L-1645.57 962.617M-1280.58 927.808L-1369.63 969.251M-1280.58 927.808L-1216.4 711.168M-1369.63 969.251L-1466.03 1014.11M-1369.63 969.251H-1645.57M-1511.1 521.949L-1524.15 537.945M-1216.4 711.168L-1135.29 685.749M-951.058 628.014L-784.776 538.698M-1524.15 537.945L-1585.1 612.635L-1585.34 612.931L-1603.9 635.68M-1524.15 537.945L-1645.57 408.653M-1603.9 635.68L-1645.57 598.366M-1603.9 635.68L-1645.57 686.746M-1466.03 1014.11L-1570.73 1062.84M-1466.03 1014.11H-1162.01M-1466.03 1014.11H-1645.57M-1162.01 1014.11L-1253.62 1062.84M-1570.73 1062.84H-1253.62M-1570.73 1062.84L-1645.57 1097.67M-1570.73 1062.84H-1645.57M-1586.87 1240.09L-1594.98 1237.91M-1594.98 1237.91L-1645.57 1224.34M-507.832 185.029L-511.519 184.428M-511.519 184.428L-514.288 183.977M-514.288 183.977L-515.545 185.491M-515.545 185.491L-517.033 187.282M-1032.93 173.323L-1029.96 172.437M-1032.93 173.323L-1008.16 145.617M-1029.96 172.437L-1010.89 180.386M-711.933 20.1019L-749.411 153.763M-749.411 153.763L-760.577 155.656M-749.411 153.763L-751.136 159.913M-751.136 159.913L-760.577 155.656M-751.136 159.913L-764.562 207.792M-764.562 207.792L-760.577 155.656M-1060.41 202.538L-1218.37 310.606M-1218.37 310.606L-1247.05 339.979L-1247.06 339.992L-1256.2 349.351L-1257.07 350.24L-1273.04 366.606L-1273.4 366.969L-1310.6 405.072M-1218.37 310.606L-1242.18 470.215M-1310.6 405.072L-1282.93 439.315L-1282.18 440.254L-1278.08 445.318M-1310.6 405.072L-1357.56 346.933M-1451.46 230.695L-1454.01 235.305M-1465.63 256.349L-1489.23 299.083L-1497.36 313.796L-1497.39 313.843L-1507.43 332.022M-1465.63 256.349L-1500.31 282.914M-1507.43 332.022L-1500.31 282.914M-1278.08 445.318L-1242.18 470.215M-1500.31 282.914L-1513.42 291.788L-1513.5 291.841L-1521.92 297.535M-1521.92 297.535L-1522.62 298.008L-1542.12 311.203M-1521.92 297.535L-1532.02 291.909M-1542.12 311.203L-1591.69 344.733M-1542.12 311.203L-1532.02 291.909M-1591.69 344.733L-1645.57 297.147M-1549.95 216.718L-1565.78 220.461M-1549.95 216.718L-1626.01 138.223M-1565.78 220.461L-1582.97 224.526M-1565.78 220.461L-1626.01 138.223M-1582.97 224.526L-1623.42 234.096M-1582.97 224.526L-1645.57 171.927M-1623.42 234.096L-1645.57 215.5M-1623.42 234.096L-1645.57 222.212M-1532.02 291.909L-1645.57 223.957M1210.77 337.569L1214.9 345.257M1210.77 337.569H1088.46M845.842 330.132L843.845 337.569M845.842 330.132H966.153M843.845 337.569H966.153M966.153 330.132L966.153 337.569M966.153 337.569H1088.46M-1008.16 145.617L-975.465 143.19L-960.921 152.114M-1008.16 145.617L-960.921 152.114M-1008.16 145.617L-1010.89 180.386M-1626.01 138.223L-1627.3 138.642M-1650 403.935L-1645.57 408.653M2021.23 1309H3570M2021.23 1309H-188.853M3552.45 200.959L3552.78 201.419L3569.72 207.521V659.384M3552.45 200.959L3485.36 109.904L3445.71 138.197L3409.07 1.3399L3270.23 31.0376L3121.07 111.115L3051.67 92.2001L2915.45 121.765L2751.68 75.0988L2593.19 23.5488L2428.96 46.4043L2334.2 182.545L2288.61 167.87L2125.24 131.502L2005.48 272.578L1968.4 271.577L1923.36 165.208L1880.57 249.564L1850.22 240.8L1803.51 248.704L1798.21 247.074L1693.79 158.677L1618.28 158.061L1527.1 110.558L1394.92 120.63L1337.65 232.703L1285.69 323.273H729.402L617.31 191.919L596.832 165.703L596.297 165.02L463.416 117.73L325.109 63.2976L253.605 136.649L184.841 110.259L111.59 157.304L-0.197452 37.4384L-131.507 171.171L-136.116 178.233L-224.577 156.955L-358.048 137.788L-429.573 166.045L-437.577 165.25L-484.724 177.697L-487.981 176.084L-491.316 179.437L-511.514 184.768L-514.283 184.317L-515.54 185.831L-539.799 192.234L-540.098 192.315L-639.208 49.0232L-663.198 82.7192L-711.928 20.4418L-749.406 154.103L-760.572 155.996L-811.487 158.954L-859.067 86.3936L-902.486 160.489L-960.915 152.454L-975.46 143.529L-1008.16 145.957L-1032.92 173.663L-1074.23 186.005L-1183.93 156.692L-1348.25 166.765L-1444.07 240.176L-1451.45 231.035L-1454 235.645L-1497.32 204.607L-1549.95 217.058L-1626.01 138.563L-1627.3 138.642M3569.72 659.384V682.93M3569.72 682.93V703.723M3569.72 703.723V773.809M3569.72 773.809V1031M3569.72 1031V1237.73M3569.72 1237.73V1237.91M-1645.57 969.251V1014.11M-1645.57 969.251V962.617M-1645.57 962.617V927.808M-1645.57 927.808V686.746M-1645.57 686.746V598.366M-1645.57 598.366V408.653M-1645.57 408.653V371.928M-1645.57 371.928V370.45M-1645.57 370.45V297.147M-1645.57 297.147V223.957M-1645.57 223.957V222.212M-1645.57 222.212V215.5M-1645.57 215.5V171.927M-1645.57 171.927V144.588M-1645.57 144.588V139.756L-1627.3 138.642M-1645.57 144.588L-1627.3 138.642M-1645.57 1308.41V1260.58M-1645.57 1308.41V1308.75H-1530.11L-1529.51 1309H-188.853M-1645.57 1308.41H-1530.12L-1645.57 1260.58M-1645.57 1260.58V1224.34M-1645.57 1224.34V1174.06M-1645.57 1174.06V1115.94M-1645.57 1115.94V1097.67M-1645.57 1097.67V1062.84M-1645.57 1062.84V1014.11" stroke="white" stroke-miterlimit="10" stroke-linecap="round" stroke-linejoin="round"/>
</g>
</svg>
