<svg width="234" height="69" viewBox="0 0 234 69" fill="none" xmlns="http://www.w3.org/2000/svg">
<g id="Group 1000004760">
<path id="Vector" d="M21.4108 16.8237C21.4108 16.52 21.4108 16.0645 20.9552 16.0645H20.3478L17.3109 16.8237C17.159 16.8237 16.8553 16.9755 16.8553 17.5829V32.1605C13.3628 28.9717 11.085 28.9717 10.3258 28.9717C6.98508 28.9717 0 30.4901 0 43.3974C0 55.5453 6.52953 57.0638 9.56652 57.0638C14.5776 57.0638 17.3109 54.4824 17.3109 54.4824C17.6145 55.849 17.7664 57.5193 18.8293 56.9119L21.1071 55.5453C21.2589 55.3935 21.7145 55.2416 21.7145 55.0898C21.7145 54.7861 21.4108 49.775 21.4108 47.4973V16.8237ZM17.0072 51.4454C17.0072 51.4454 14.2739 53.875 10.0221 53.875C4.85919 53.875 4.8592 47.1936 4.8592 42.9418C4.8592 37.9308 5.31473 32.4642 11.085 32.4642C12.9072 32.4642 15.185 33.3753 16.8553 34.2864V51.4454H17.0072ZM35.9883 28.9717C29.307 28.9717 24.4478 34.1345 24.4478 43.0937C24.4478 54.0268 31.4328 57.2157 37.2031 57.2157C39.7846 57.2157 42.0623 56.4564 43.7326 55.6972C45.5548 54.9379 45.8585 54.4824 45.8585 54.3305V54.0268L44.7956 51.5972C44.7956 51.4454 44.6437 51.2935 44.4919 51.2935H44.3401C44.1882 51.2935 43.8845 51.4454 43.5808 51.5972C41.6068 52.6602 39.6327 53.5713 37.2031 53.5713C33.4069 53.5713 29.1551 50.838 29.1551 44.3085V44.0047H45.8585C46.3141 44.0047 46.4659 43.8529 46.4659 43.0937V42.6381C46.4659 31.4012 40.8475 28.9717 35.9883 28.9717ZM29.1551 40.5122C29.307 34.5901 32.4958 32.3123 35.5328 32.3123C37.5068 32.3123 39.4809 33.0716 40.6957 35.653C41.6068 37.7789 41.6068 40.0567 41.6068 40.3604C41.6068 40.5122 29.1551 40.5122 29.1551 40.5122ZM75.3173 28.9717C72.8877 28.9717 70.61 29.8827 67.1175 32.3123C66.0545 30.0346 64.2323 28.9717 61.8027 28.9717C58.3102 28.9717 56.0324 30.4901 53.6029 32.3123C53.451 31.5531 52.9955 30.0346 52.6918 29.4272C52.3881 28.668 51.9325 28.9717 51.6288 29.1235L49.0474 30.4901C48.8955 30.4901 48.7437 30.642 48.7437 30.7938C48.7437 30.7938 48.7437 30.9457 48.8955 31.2494C49.3511 32.0086 49.8066 32.9197 49.8066 36.716V55.849C49.8066 56.4564 50.1103 56.6082 50.5659 56.6082H53.6029C54.2103 56.6082 54.3621 56.3046 54.3621 55.849V35.0456C56.1843 33.679 57.8546 32.7679 59.9805 32.7679C63.6249 32.7679 63.7768 35.8049 63.7768 37.3234V55.849C63.7768 56.4564 64.0805 56.6082 64.536 56.6082H67.573C67.8767 56.6082 68.3322 56.6082 68.3322 55.849V35.0456L68.7878 34.7419C69.0915 34.5901 71.5211 32.7679 73.9507 32.7679C77.5951 32.7679 77.7469 35.8049 77.7469 37.3234V55.849C77.7469 56.4564 78.0506 56.6082 78.5062 56.6082H81.5432C81.8469 56.6082 82.3024 56.6082 82.3024 55.849V37.4752C81.695 33.8308 81.3913 28.9717 75.3173 28.9717ZM90.0467 29.7309H87.0097C86.706 29.7309 86.2505 29.7309 86.2505 30.4901V55.849C86.2505 56.4564 86.5542 56.6082 87.0097 56.6082H90.0467C90.3504 56.6082 90.806 56.6082 90.806 55.849V30.4901C90.806 30.1865 90.806 29.7309 90.0467 29.7309ZM88.9838 18.1903C87.3134 18.1903 85.9468 19.557 85.9468 21.2273C85.9468 22.8977 87.3134 24.2643 88.9838 24.2643C90.6541 24.2643 92.0208 22.8977 92.0208 21.2273C92.0208 19.557 90.6541 18.1903 88.9838 18.1903ZM106.295 41.4233C102.65 39.9048 100.221 38.9937 100.221 36.2604C100.221 34.2864 101.739 32.4642 105.08 32.4642C106.598 32.4642 108.117 32.7679 110.243 33.679C110.546 33.8308 110.698 33.8308 111.154 33.9827C111.306 33.9827 111.609 33.9827 111.761 33.5271L112.824 31.4012C112.976 31.2494 113.128 30.7939 112.217 30.3383C111.458 29.8828 109.939 29.4272 109.028 29.2753C107.509 28.9717 105.839 28.668 104.624 28.668C99.1577 28.668 95.5133 31.8568 95.5133 36.2604C95.5133 40.9678 99.3095 42.4863 103.409 44.1566C107.054 45.6751 109.332 46.5862 109.332 49.1676C109.332 51.5972 107.509 53.1157 104.169 53.1157C102.195 53.1157 99.6132 52.5083 98.0947 51.7491C97.1836 51.2935 96.7281 51.1417 96.4244 50.9898H96.2726C95.9689 50.9898 95.9689 51.1417 95.9689 51.2935L94.7541 53.5713V54.0268C94.7541 54.4824 95.6652 54.7861 95.817 54.9379C97.3355 55.6972 100.98 56.7601 104.169 56.7601C109.18 56.7601 114.191 54.1787 114.191 49.0158C114.191 44.6121 110.091 42.9418 106.295 41.4233ZM160.96 33.679L162.327 30.642C162.479 30.4901 162.631 30.0346 161.872 29.8827C161.264 29.7309 160.505 29.4272 159.594 29.4272C156.557 29.4272 154.735 31.7049 153.368 33.2234L152.609 34.1345C152.457 33.0716 152.001 31.5531 151.242 30.3383C151.09 30.0346 150.786 29.5791 150.331 29.4272H150.179C150.027 29.4272 150.027 29.5791 149.724 29.5791L147.446 31.0975C147.294 31.2494 147.294 31.2494 147.294 31.5531C147.294 31.8568 147.446 32.0086 147.446 32.1605L147.901 32.9197C148.509 34.1345 148.812 35.3493 148.812 37.1715V56.3046C148.812 56.6083 148.812 57.0638 149.572 57.0638H152.609C153.216 57.0638 153.368 56.7601 153.368 56.3046V38.0826L154.279 37.0197C155.342 35.653 157.164 33.679 158.835 33.679C159.138 33.679 159.594 33.679 159.897 33.8308C160.353 33.9827 160.353 34.1345 160.505 34.1345C160.809 33.9827 160.96 33.8308 160.96 33.679ZM172.045 29.2753C167.034 29.2753 160.657 32.3123 160.657 43.3974C160.657 54.4824 167.186 57.5194 172.045 57.5194C176.905 57.5194 183.434 54.4824 183.434 43.3974C183.586 32.3123 177.056 29.2753 172.045 29.2753ZM172.045 54.1787C165.668 54.1787 165.364 46.4343 165.364 43.5492C165.364 40.6641 165.668 32.9197 172.045 32.9197C178.423 32.9197 178.727 40.6641 178.727 43.5492C178.879 46.4343 178.575 54.1787 172.045 54.1787ZM145.624 30.1865C145.472 29.2754 144.713 28.668 143.801 28.668C141.524 28.9717 140.005 29.8827 139.398 30.642C137.576 29.5791 135.45 28.8198 133.324 28.8198C127.857 28.8198 122.391 32.9197 122.391 37.9308C122.391 41.1196 124.517 43.8529 127.402 45.5232C127.402 45.5232 127.402 45.6751 127.25 45.6751C126.491 46.2825 124.972 47.1936 124.365 48.2565C123.757 49.4713 124.061 50.5343 124.365 50.9898C125.428 53.1157 128.92 53.4194 134.083 53.875L135.146 54.0268C139.55 54.4824 141.372 56.7601 141.372 58.5823C141.372 60.86 138.335 63.2896 133.931 63.2896C128.92 63.2896 128.009 61.4674 127.25 60.4045C127.098 60.1008 127.098 59.3415 127.098 59.1897C127.705 57.6712 126.491 56.9119 125.58 56.6082C124.517 56.4564 123.454 56.6083 122.998 57.5194C122.239 58.886 122.239 60.5563 123.15 61.923C124.061 63.4415 126.794 66.1748 134.235 66.1748H134.539C141.524 66.1748 145.472 62.3785 145.624 58.7342C145.775 55.0898 143.801 50.6861 136.513 50.3824C129.376 50.0787 128.161 50.3824 128.161 49.1676C128.161 47.801 132.413 46.8899 133.779 46.8899C139.094 46.5862 143.953 42.6381 143.953 37.7789C143.953 35.8049 143.194 33.9827 141.827 32.616C142.131 32.3123 142.738 32.0086 144.105 31.8568C145.016 32.0086 145.624 31.0976 145.624 30.1865ZM133.172 44.4603C129.679 44.4603 126.794 41.2715 126.794 38.0826C126.794 35.0456 129.983 31.8568 133.476 31.8568C136.968 31.8568 139.55 34.8938 139.55 38.0826C139.55 41.2715 136.665 44.4603 133.172 44.4603Z" fill="white"/>
<path id="Vector_2" d="M207.122 53.1146C206.819 52.3553 206.667 51.5961 206.667 50.8368V29.5779C206.667 29.5779 206.667 29.4261 206.515 29.4261C206.515 29.4261 206.363 29.2742 205.756 29.4261L201.808 30.1853C201.656 30.1853 201.352 30.3372 201.352 30.9446V51.1406C199.682 52.3554 197.86 53.4183 195.43 53.4183C193.152 53.4183 191.786 52.9627 191.786 49.4702V29.7298C191.634 29.5779 191.33 29.5779 191.026 29.5779L187.23 30.3372C187.078 30.3372 186.775 30.489 186.775 31.0964V49.6221C186.775 53.4183 187.534 57.9738 194.671 57.9738C197.404 57.9738 200.441 56.4553 201.656 54.6331L201.808 55.0886C201.96 55.3923 202.111 55.8479 202.719 56.9108C203.478 58.1256 203.782 58.2775 204.085 58.1256L207.882 56.1516C208.034 55.9997 208.337 55.9997 208.337 55.696C208.337 55.5442 208.185 55.5442 208.034 55.0886C207.882 54.4812 207.426 53.8738 207.122 53.1146ZM224.433 29.2742C221.245 29.2742 218.511 31.0964 216.993 32.3112L216.537 32.6149C216.233 31.552 215.778 30.3372 215.019 29.5779C214.563 29.1224 214.259 29.2742 214.108 29.4261L211.222 30.9446C211.071 30.9446 210.919 31.0964 210.919 31.4001C210.919 31.552 211.071 31.8557 211.374 32.1594C212.741 34.4371 212.741 36.1075 212.741 37.3223V67.844C212.741 68.6032 213.956 68.4514 214.259 68.2995L216.993 67.5403C217.448 67.3884 217.448 66.9329 217.448 66.781V55.5442C218.208 55.9997 220.485 57.3664 223.674 57.3664C227.318 57.3664 234 55.8479 234 43.0925C233.848 30.7927 227.318 29.2742 224.433 29.2742ZM223.219 53.2664C221.244 53.2664 218.967 52.3553 217.448 51.5961V36.4112C218.967 35.3482 221.244 33.8297 223.37 33.8297C228.381 33.8297 228.685 38.6889 228.685 43.3962C228.837 48.4073 228.533 53.2664 223.219 53.2664ZM206.667 14.0893V9.38195L196.797 0.119141L186.775 9.38195V14.0893L196.797 4.82647L206.667 14.0893Z" fill="white"/>
<path id="Vector_3" d="M206.667 22.1362V17.4288L196.797 8.31787L186.775 17.4288V22.1362L196.797 12.8734L206.667 22.1362Z" fill="white"/>
</g>
</svg>
