<svg width="14" height="9" viewBox="0 0 14 9" fill="none" xmlns="http://www.w3.org/2000/svg">
<g id="Read">
<path id="Shape" fill-rule="evenodd" clip-rule="evenodd" d="M9.63521 0.653544L3.43573 7.0784L0.862149 4.45215L0.794346 4.3943C0.602859 4.25855 0.333042 4.27083 0.155256 4.43524C-0.0447525 4.6202 -0.0525442 4.92764 0.137853 5.12193L3.07639 8.12061L3.14702 8.18047C3.34667 8.32 3.62866 8.2989 3.80333 8.11789L10.3648 1.31789L10.4204 1.24884C10.549 1.0554 10.521 0.794413 10.3419 0.631343C10.1405 0.44789 9.82405 0.457829 9.63521 0.653544ZM13.1336 0.655212L6.6336 7.45521L6.57835 7.52452C6.45066 7.71854 6.4799 7.97939 6.65978 8.14164C6.86213 8.32418 7.1785 8.31279 7.3664 8.11622L13.8664 1.31622L13.9216 1.24692C14.0493 1.05289 14.0201 0.792039 13.8402 0.629788C13.6379 0.447255 13.3215 0.458638 13.1336 0.655212Z" fill="white"/>
</g>
</svg>
